<?xml version="1.0" encoding="utf-8" standalone="no"?>
<!DOCTYPE svg PUBLIC "-//W3C//DTD SVG 1.1//EN"
  "http://www.w3.org/Graphics/SVG/1.1/DTD/svg11.dtd">
<svg xmlns:xlink="http://www.w3.org/1999/xlink" width="460.8pt" height="345.6pt" viewBox="0 0 460.8 345.6" xmlns="http://www.w3.org/2000/svg" version="1.1">
 <metadata>
  <rdf:RDF xmlns:dc="http://purl.org/dc/elements/1.1/" xmlns:cc="http://creativecommons.org/ns#" xmlns:rdf="http://www.w3.org/1999/02/22-rdf-syntax-ns#">
   <cc:Work>
    <dc:type rdf:resource="http://purl.org/dc/dcmitype/StillImage"/>
    <dc:date>2023-12-03T21:58:03.800181</dc:date>
    <dc:format>image/svg+xml</dc:format>
    <dc:creator>
     <cc:Agent>
      <dc:title>Matplotlib v3.8.2, https://matplotlib.org/</dc:title>
     </cc:Agent>
    </dc:creator>
   </cc:Work>
  </rdf:RDF>
 </metadata>
 <defs>
  <style type="text/css">*{stroke-linejoin: round; stroke-linecap: butt}</style>
 </defs>
 <g id="figure_1">
  <g id="patch_1">
   <path d="M 0 345.6 
L 460.8 345.6 
L 460.8 0 
L 0 0 
z
" style="fill: #ffffff"/>
  </g>
  <g id="axes_1">
   <g id="patch_2">
    <path d="M 75.163279 189.164066 
C 79.044809 189.164066 82.767884 187.621917 85.51254 184.877261 
C 88.257196 182.132605 89.799344 178.40953 89.799344 174.528 
C 89.799344 170.64647 88.257196 166.923395 85.51254 164.178739 
C 82.767884 161.434083 79.044809 159.891934 75.163279 159.891934 
C 71.281749 159.891934 67.558674 161.434083 64.814017 164.178739 
C 62.069361 166.923395 60.527213 170.64647 60.527213 174.528 
C 60.527213 178.40953 62.069361 182.132605 64.814017 184.877261 
C 67.558674 187.621917 71.281749 189.164066 75.163279 189.164066 
z
" clip-path="url(#p60086f447f)" style="fill: #313695; stroke: #ffffff; stroke-linejoin: miter"/>
   </g>
   <g id="patch_3">
    <path d="M 104.43541 189.164066 
C 108.31694 189.164066 112.040015 187.621917 114.784671 184.877261 
C 117.529327 182.132605 119.071475 178.40953 119.071475 174.528 
C 119.071475 170.64647 117.529327 166.923395 114.784671 164.178739 
C 112.040015 161.434083 108.31694 159.891934 104.43541 159.891934 
C 100.55388 159.891934 96.830805 161.434083 94.086149 164.178739 
C 91.341492 166.923395 89.799344 170.64647 89.799344 174.528 
C 89.799344 178.40953 91.341492 182.132605 94.086149 184.877261 
C 96.830805 187.621917 100.55388 189.164066 104.43541 189.164066 
z
" clip-path="url(#p60086f447f)" style="fill: #4574b3; stroke: #ffffff; stroke-linejoin: miter"/>
   </g>
   <g id="patch_4">
    <path d="M 133.707541 189.164066 
C 137.589071 189.164066 141.312146 187.621917 144.056802 184.877261 
C 146.801458 182.132605 148.343607 178.40953 148.343607 174.528 
C 148.343607 170.64647 146.801458 166.923395 144.056802 164.178739 
C 141.312146 161.434083 137.589071 159.891934 133.707541 159.891934 
C 129.826011 159.891934 126.102936 161.434083 123.35828 164.178739 
C 120.613624 166.923395 119.071475 170.64647 119.071475 174.528 
C 119.071475 178.40953 120.613624 182.132605 123.35828 184.877261 
C 126.102936 187.621917 129.826011 189.164066 133.707541 189.164066 
z
" clip-path="url(#p60086f447f)" style="fill: #74add1; stroke: #ffffff; stroke-linejoin: miter"/>
   </g>
   <g id="patch_5">
    <path d="M 162.979672 189.164066 
C 166.861202 189.164066 170.584277 187.621917 173.328933 184.877261 
C 176.07359 182.132605 177.615738 178.40953 177.615738 174.528 
C 177.615738 170.64647 176.07359 166.923395 173.328933 164.178739 
C 170.584277 161.434083 166.861202 159.891934 162.979672 159.891934 
C 159.098142 159.891934 155.375067 161.434083 152.630411 164.178739 
C 149.885755 166.923395 148.343607 170.64647 148.343607 174.528 
C 148.343607 178.40953 149.885755 182.132605 152.630411 184.877261 
C 155.375067 187.621917 159.098142 189.164066 162.979672 189.164066 
z
" clip-path="url(#p60086f447f)" style="fill: #aad8e9; stroke: #ffffff; stroke-linejoin: miter"/>
   </g>
   <g id="patch_6">
    <path d="M 192.251803 189.164066 
C 196.133333 189.164066 199.856408 187.621917 202.601064 184.877261 
C 205.345721 182.132605 206.887869 178.40953 206.887869 174.528 
C 206.887869 170.64647 205.345721 166.923395 202.601064 164.178739 
C 199.856408 161.434083 196.133333 159.891934 192.251803 159.891934 
C 188.370273 159.891934 184.647198 161.434083 181.902542 164.178739 
C 179.157886 166.923395 177.615738 170.64647 177.615738 174.528 
C 177.615738 178.40953 179.157886 182.132605 181.902542 184.877261 
C 184.647198 187.621917 188.370273 189.164066 192.251803 189.164066 
z
" clip-path="url(#p60086f447f)" style="fill: #e0f3f8; stroke: #ffffff; stroke-linejoin: miter"/>
   </g>
   <g id="patch_7">
    <path d="M 221.523934 189.164066 
C 225.405464 189.164066 229.128539 187.621917 231.873196 184.877261 
C 234.617852 182.132605 236.16 178.40953 236.16 174.528 
C 236.16 170.64647 234.617852 166.923395 231.873196 164.178739 
C 229.128539 161.434083 225.405464 159.891934 221.523934 159.891934 
C 217.642404 159.891934 213.919329 161.434083 211.174673 164.178739 
C 208.430017 166.923395 206.887869 170.64647 206.887869 174.528 
C 206.887869 178.40953 208.430017 182.132605 211.174673 184.877261 
C 213.919329 187.621917 217.642404 189.164066 221.523934 189.164066 
z
" clip-path="url(#p60086f447f)" style="fill: #fffebe; stroke: #ffffff; stroke-linejoin: miter"/>
   </g>
   <g id="patch_8">
    <path d="M 250.796066 189.164066 
C 254.677596 189.164066 258.400671 187.621917 261.145327 184.877261 
C 263.889983 182.132605 265.432131 178.40953 265.432131 174.528 
C 265.432131 170.64647 263.889983 166.923395 261.145327 164.178739 
C 258.400671 161.434083 254.677596 159.891934 250.796066 159.891934 
C 246.914536 159.891934 243.191461 161.434083 240.446804 164.178739 
C 237.702148 166.923395 236.16 170.64647 236.16 174.528 
C 236.16 178.40953 237.702148 182.132605 240.446804 184.877261 
C 243.191461 187.621917 246.914536 189.164066 250.796066 189.164066 
z
" clip-path="url(#p60086f447f)" style="fill: #fee090; stroke: #ffffff; stroke-linejoin: miter"/>
   </g>
   <g id="patch_9">
    <path d="M 280.068197 189.164066 
C 283.949727 189.164066 287.672802 187.621917 290.417458 184.877261 
C 293.162114 182.132605 294.704262 178.40953 294.704262 174.528 
C 294.704262 170.64647 293.162114 166.923395 290.417458 164.178739 
C 287.672802 161.434083 283.949727 159.891934 280.068197 159.891934 
C 276.186667 159.891934 272.463592 161.434083 269.718936 164.178739 
C 266.974279 166.923395 265.432131 170.64647 265.432131 174.528 
C 265.432131 178.40953 266.974279 182.132605 269.718936 184.877261 
C 272.463592 187.621917 276.186667 189.164066 280.068197 189.164066 
z
" clip-path="url(#p60086f447f)" style="fill: #fdad60; stroke: #ffffff; stroke-linejoin: miter"/>
   </g>
   <g id="patch_10">
    <path d="M 309.340328 189.164066 
C 313.221858 189.164066 316.944933 187.621917 319.689589 184.877261 
C 322.434245 182.132605 323.976393 178.40953 323.976393 174.528 
C 323.976393 170.64647 322.434245 166.923395 319.689589 164.178739 
C 316.944933 161.434083 313.221858 159.891934 309.340328 159.891934 
C 305.458798 159.891934 301.735723 161.434083 298.991067 164.178739 
C 296.24641 166.923395 294.704262 170.64647 294.704262 174.528 
C 294.704262 178.40953 296.24641 182.132605 298.991067 184.877261 
C 301.735723 187.621917 305.458798 189.164066 309.340328 189.164066 
z
" clip-path="url(#p60086f447f)" style="fill: #f46d43; stroke: #ffffff; stroke-linejoin: miter"/>
   </g>
   <g id="patch_11">
    <path d="M 338.612459 189.164066 
C 342.493989 189.164066 346.217064 187.621917 348.96172 184.877261 
C 351.706376 182.132605 353.248525 178.40953 353.248525 174.528 
C 353.248525 170.64647 351.706376 166.923395 348.96172 164.178739 
C 346.217064 161.434083 342.493989 159.891934 338.612459 159.891934 
C 334.730929 159.891934 331.007854 161.434083 328.263198 164.178739 
C 325.518542 166.923395 323.976393 170.64647 323.976393 174.528 
C 323.976393 178.40953 325.518542 182.132605 328.263198 184.877261 
C 331.007854 187.621917 334.730929 189.164066 338.612459 189.164066 
z
" clip-path="url(#p60086f447f)" style="fill: #d62f27; stroke: #ffffff; stroke-linejoin: miter"/>
   </g>
   <g id="patch_12">
    <path d="M 367.88459 189.164066 
C 371.76612 189.164066 375.489195 187.621917 378.233851 184.877261 
C 380.978508 182.132605 382.520656 178.40953 382.520656 174.528 
C 382.520656 170.64647 380.978508 166.923395 378.233851 164.178739 
C 375.489195 161.434083 371.76612 159.891934 367.88459 159.891934 
C 364.00306 159.891934 360.279985 161.434083 357.535329 164.178739 
C 354.790673 166.923395 353.248525 170.64647 353.248525 174.528 
C 353.248525 178.40953 354.790673 182.132605 357.535329 184.877261 
C 360.279985 187.621917 364.00306 189.164066 367.88459 189.164066 
z
" clip-path="url(#p60086f447f)" style="fill: #a50026; stroke: #ffffff; stroke-linejoin: miter"/>
   </g>
   <g id="text_1">
    <!-- -5 -->
    <g transform="translate(70.178122 177.287375) scale(0.1 -0.1)">
     <defs>
      <path id="DejaVuSans-2d" d="M 313 2009 
L 1997 2009 
L 1997 1497 
L 313 1497 
L 313 2009 
z
" transform="scale(0.015625)"/>
      <path id="DejaVuSans-35" d="M 691 4666 
L 3169 4666 
L 3169 4134 
L 1269 4134 
L 1269 2991 
Q 1406 3038 1543 3061 
Q 1681 3084 1819 3084 
Q 2600 3084 3056 2656 
Q 3513 2228 3513 1497 
Q 3513 744 3044 326 
Q 2575 -91 1722 -91 
Q 1428 -91 1123 -41 
Q 819 9 494 109 
L 494 744 
Q 775 591 1075 516 
Q 1375 441 1709 441 
Q 2250 441 2565 725 
Q 2881 1009 2881 1497 
Q 2881 1984 2565 2268 
Q 2250 2553 1709 2553 
Q 1456 2553 1204 2497 
Q 953 2441 691 2322 
L 691 4666 
z
" transform="scale(0.015625)"/>
     </defs>
     <use xlink:href="#DejaVuSans-2d"/>
     <use xlink:href="#DejaVuSans-35" x="36.083984"/>
    </g>
   </g>
   <g id="text_2">
    <!-- -4 -->
    <g transform="translate(99.450254 177.287375) scale(0.1 -0.1)">
     <defs>
      <path id="DejaVuSans-34" d="M 2419 4116 
L 825 1625 
L 2419 1625 
L 2419 4116 
z
M 2253 4666 
L 3047 4666 
L 3047 1625 
L 3713 1625 
L 3713 1100 
L 3047 1100 
L 3047 0 
L 2419 0 
L 2419 1100 
L 313 1100 
L 313 1709 
L 2253 4666 
z
" transform="scale(0.015625)"/>
     </defs>
     <use xlink:href="#DejaVuSans-2d"/>
     <use xlink:href="#DejaVuSans-34" x="36.083984"/>
    </g>
   </g>
   <g id="text_3">
    <!-- -3 -->
    <g transform="translate(128.722385 177.287375) scale(0.1 -0.1)">
     <defs>
      <path id="DejaVuSans-33" d="M 2597 2516 
Q 3050 2419 3304 2112 
Q 3559 1806 3559 1356 
Q 3559 666 3084 287 
Q 2609 -91 1734 -91 
Q 1441 -91 1130 -33 
Q 819 25 488 141 
L 488 750 
Q 750 597 1062 519 
Q 1375 441 1716 441 
Q 2309 441 2620 675 
Q 2931 909 2931 1356 
Q 2931 1769 2642 2001 
Q 2353 2234 1838 2234 
L 1294 2234 
L 1294 2753 
L 1863 2753 
Q 2328 2753 2575 2939 
Q 2822 3125 2822 3475 
Q 2822 3834 2567 4026 
Q 2313 4219 1838 4219 
Q 1578 4219 1281 4162 
Q 984 4106 628 3988 
L 628 4550 
Q 988 4650 1302 4700 
Q 1616 4750 1894 4750 
Q 2613 4750 3031 4423 
Q 3450 4097 3450 3541 
Q 3450 3153 3228 2886 
Q 3006 2619 2597 2516 
z
" transform="scale(0.015625)"/>
     </defs>
     <use xlink:href="#DejaVuSans-2d"/>
     <use xlink:href="#DejaVuSans-33" x="36.083984"/>
    </g>
   </g>
   <g id="text_4">
    <!-- -2 -->
    <g transform="translate(157.994516 177.287375) scale(0.1 -0.1)">
     <defs>
      <path id="DejaVuSans-32" d="M 1228 531 
L 3431 531 
L 3431 0 
L 469 0 
L 469 531 
Q 828 903 1448 1529 
Q 2069 2156 2228 2338 
Q 2531 2678 2651 2914 
Q 2772 3150 2772 3378 
Q 2772 3750 2511 3984 
Q 2250 4219 1831 4219 
Q 1534 4219 1204 4116 
Q 875 4013 500 3803 
L 500 4441 
Q 881 4594 1212 4672 
Q 1544 4750 1819 4750 
Q 2544 4750 2975 4387 
Q 3406 4025 3406 3419 
Q 3406 3131 3298 2873 
Q 3191 2616 2906 2266 
Q 2828 2175 2409 1742 
Q 1991 1309 1228 531 
z
" transform="scale(0.015625)"/>
     </defs>
     <use xlink:href="#DejaVuSans-2d"/>
     <use xlink:href="#DejaVuSans-32" x="36.083984"/>
    </g>
   </g>
   <g id="text_5">
    <!-- -1 -->
    <g transform="translate(187.266647 177.287375) scale(0.1 -0.1)">
     <defs>
      <path id="DejaVuSans-31" d="M 794 531 
L 1825 531 
L 1825 4091 
L 703 3866 
L 703 4441 
L 1819 4666 
L 2450 4666 
L 2450 531 
L 3481 531 
L 3481 0 
L 794 0 
L 794 531 
z
" transform="scale(0.015625)"/>
     </defs>
     <use xlink:href="#DejaVuSans-2d"/>
     <use xlink:href="#DejaVuSans-31" x="36.083984"/>
    </g>
   </g>
   <g id="text_6">
    <!-- 0 -->
    <g transform="translate(218.342684 177.287375) scale(0.1 -0.1)">
     <defs>
      <path id="DejaVuSans-30" d="M 2034 4250 
Q 1547 4250 1301 3770 
Q 1056 3291 1056 2328 
Q 1056 1369 1301 889 
Q 1547 409 2034 409 
Q 2525 409 2770 889 
Q 3016 1369 3016 2328 
Q 3016 3291 2770 3770 
Q 2525 4250 2034 4250 
z
M 2034 4750 
Q 2819 4750 3233 4129 
Q 3647 3509 3647 2328 
Q 3647 1150 3233 529 
Q 2819 -91 2034 -91 
Q 1250 -91 836 529 
Q 422 1150 422 2328 
Q 422 3509 836 4129 
Q 1250 4750 2034 4750 
z
" transform="scale(0.015625)"/>
     </defs>
     <use xlink:href="#DejaVuSans-30"/>
    </g>
   </g>
   <g id="text_7">
    <!-- 1 -->
    <g transform="translate(247.614816 177.287375) scale(0.1 -0.1)">
     <use xlink:href="#DejaVuSans-31"/>
    </g>
   </g>
   <g id="text_8">
    <!-- 2 -->
    <g transform="translate(276.886947 177.287375) scale(0.1 -0.1)">
     <use xlink:href="#DejaVuSans-32"/>
    </g>
   </g>
   <g id="text_9">
    <!-- 3 -->
    <g transform="translate(306.159078 177.287375) scale(0.1 -0.1)">
     <use xlink:href="#DejaVuSans-33"/>
    </g>
   </g>
   <g id="text_10">
    <!-- 4 -->
    <g transform="translate(335.431209 177.287375) scale(0.1 -0.1)">
     <use xlink:href="#DejaVuSans-34"/>
    </g>
   </g>
   <g id="text_11">
    <!-- 5 -->
    <g transform="translate(364.70334 177.287375) scale(0.1 -0.1)">
     <use xlink:href="#DejaVuSans-35"/>
    </g>
   </g>
  </g>
 </g>
 <defs>
  <clipPath id="p60086f447f">
   <rect x="57.6" y="156.964721" width="357.12" height="35.126557"/>
  </clipPath>
 </defs>
</svg>
