<?xml version="1.0" encoding="utf-8" standalone="no"?>
<!DOCTYPE svg PUBLIC "-//W3C//DTD SVG 1.1//EN"
  "http://www.w3.org/Graphics/SVG/1.1/DTD/svg11.dtd">
<svg xmlns:xlink="http://www.w3.org/1999/xlink" width="72pt" height="576pt" viewBox="0 0 72 576" xmlns="http://www.w3.org/2000/svg" version="1.1">
 <metadata>
  <rdf:RDF xmlns:dc="http://purl.org/dc/elements/1.1/" xmlns:cc="http://creativecommons.org/ns#" xmlns:rdf="http://www.w3.org/1999/02/22-rdf-syntax-ns#">
   <cc:Work>
    <dc:type rdf:resource="http://purl.org/dc/dcmitype/StillImage"/>
    <dc:date>2023-12-04T14:32:57.195026</dc:date>
    <dc:format>image/svg+xml</dc:format>
    <dc:creator>
     <cc:Agent>
      <dc:title>Matplotlib v3.8.2, https://matplotlib.org/</dc:title>
     </cc:Agent>
    </dc:creator>
   </cc:Work>
  </rdf:RDF>
 </metadata>
 <defs>
  <style type="text/css">*{stroke-linejoin: round; stroke-linecap: butt}</style>
 </defs>
 <g id="figure_1">
  <g id="patch_1">
   <path d="M 0 576 
L 72 576 
L 72 0 
L 0 0 
z
" style="fill: #ffffff"/>
  </g>
  <g id="axes_1">
   <g id="patch_2">
    <path d="M 22.116 512.64 
L 51.684 512.64 
L 51.684 69.12 
L 22.116 69.12 
z
" style="fill: #ffffff"/>
   </g>
   <g id="QuadMesh_1">
    <path d="M 22.116 69.12 
L 51.684 69.12 
L 51.684 98.688 
L 22.116 98.688 
L 22.116 69.12 
" clip-path="url(#p6aa7283918)" style="fill: #313695; stroke: #ffffff; stroke-width: 0.5"/>
    <path d="M 22.116 98.688 
L 51.684 98.688 
L 51.684 128.256 
L 22.116 128.256 
L 22.116 98.688 
" clip-path="url(#p6aa7283918)" style="fill: #3f62ab; stroke: #ffffff; stroke-width: 0.5"/>
    <path d="M 22.116 128.256 
L 51.684 128.256 
L 51.684 157.824 
L 22.116 157.824 
L 22.116 128.256 
" clip-path="url(#p6aa7283918)" style="fill: #588cc0; stroke: #ffffff; stroke-width: 0.5"/>
    <path d="M 22.116 157.824 
L 51.684 157.824 
L 51.684 187.392 
L 22.116 187.392 
L 22.116 157.824 
" clip-path="url(#p6aa7283918)" style="fill: #7ab2d4; stroke: #ffffff; stroke-width: 0.5"/>
    <path d="M 22.116 187.392 
L 51.684 187.392 
L 51.684 216.96 
L 22.116 216.96 
L 22.116 187.392 
" clip-path="url(#p6aa7283918)" style="fill: #a3d3e6; stroke: #ffffff; stroke-width: 0.5"/>
    <path d="M 22.116 216.96 
L 51.684 216.96 
L 51.684 246.528 
L 22.116 246.528 
L 22.116 216.96 
" clip-path="url(#p6aa7283918)" style="fill: #c9e8f2; stroke: #ffffff; stroke-width: 0.5"/>
    <path d="M 22.116 246.528 
L 51.684 246.528 
L 51.684 276.096 
L 22.116 276.096 
L 22.116 246.528 
" clip-path="url(#p6aa7283918)" style="fill: #e9f6e8; stroke: #ffffff; stroke-width: 0.5"/>
    <path d="M 22.116 276.096 
L 51.684 276.096 
L 51.684 305.664 
L 22.116 305.664 
L 22.116 276.096 
" clip-path="url(#p6aa7283918)" style="fill: #fffebe; stroke: #ffffff; stroke-width: 0.5"/>
    <path d="M 22.116 305.664 
L 51.684 305.664 
L 51.684 335.232 
L 22.116 335.232 
L 22.116 305.664 
" clip-path="url(#p6aa7283918)" style="fill: #fee99d; stroke: #ffffff; stroke-width: 0.5"/>
    <path d="M 22.116 335.232 
L 51.684 335.232 
L 51.684 364.8 
L 22.116 364.8 
L 22.116 335.232 
" clip-path="url(#p6aa7283918)" style="fill: #feca7c; stroke: #ffffff; stroke-width: 0.5"/>
    <path d="M 22.116 364.8 
L 51.684 364.8 
L 51.684 394.368 
L 22.116 394.368 
L 22.116 364.8 
" clip-path="url(#p6aa7283918)" style="fill: #fca55d; stroke: #ffffff; stroke-width: 0.5"/>
    <path d="M 22.116 394.368 
L 51.684 394.368 
L 51.684 423.936 
L 22.116 423.936 
L 22.116 394.368 
" clip-path="url(#p6aa7283918)" style="fill: #f57547; stroke: #ffffff; stroke-width: 0.5"/>
    <path d="M 22.116 423.936 
L 51.684 423.936 
L 51.684 453.504 
L 22.116 453.504 
L 22.116 423.936 
" clip-path="url(#p6aa7283918)" style="fill: #e34933; stroke: #ffffff; stroke-width: 0.5"/>
    <path d="M 22.116 453.504 
L 51.684 453.504 
L 51.684 483.072 
L 22.116 483.072 
L 22.116 453.504 
" clip-path="url(#p6aa7283918)" style="fill: #c82227; stroke: #ffffff; stroke-width: 0.5"/>
    <path d="M 22.116 483.072 
L 51.684 483.072 
L 51.684 512.64 
L 22.116 512.64 
L 22.116 483.072 
" clip-path="url(#p6aa7283918)" style="fill: #a50026; stroke: #ffffff; stroke-width: 0.5"/>
   </g>
   <g id="matplotlib.axis_1"/>
   <g id="matplotlib.axis_2"/>
   <g id="text_1">
    <!-- -7 -->
    <g style="fill: #ffffff" transform="translate(31.914844 86.663375) scale(0.1 -0.1)">
     <defs>
      <path id="DejaVuSans-2d" d="M 313 2009 
L 1997 2009 
L 1997 1497 
L 313 1497 
L 313 2009 
z
" transform="scale(0.015625)"/>
      <path id="DejaVuSans-37" d="M 525 4666 
L 3525 4666 
L 3525 4397 
L 1831 0 
L 1172 0 
L 2766 4134 
L 525 4134 
L 525 4666 
z
" transform="scale(0.015625)"/>
     </defs>
     <use xlink:href="#DejaVuSans-2d"/>
     <use xlink:href="#DejaVuSans-37" x="36.083984"/>
    </g>
   </g>
   <g id="text_2">
    <!-- -6 -->
    <g style="fill: #ffffff" transform="translate(31.914844 116.231375) scale(0.1 -0.1)">
     <defs>
      <path id="DejaVuSans-36" d="M 2113 2584 
Q 1688 2584 1439 2293 
Q 1191 2003 1191 1497 
Q 1191 994 1439 701 
Q 1688 409 2113 409 
Q 2538 409 2786 701 
Q 3034 994 3034 1497 
Q 3034 2003 2786 2293 
Q 2538 2584 2113 2584 
z
M 3366 4563 
L 3366 3988 
Q 3128 4100 2886 4159 
Q 2644 4219 2406 4219 
Q 1781 4219 1451 3797 
Q 1122 3375 1075 2522 
Q 1259 2794 1537 2939 
Q 1816 3084 2150 3084 
Q 2853 3084 3261 2657 
Q 3669 2231 3669 1497 
Q 3669 778 3244 343 
Q 2819 -91 2113 -91 
Q 1303 -91 875 529 
Q 447 1150 447 2328 
Q 447 3434 972 4092 
Q 1497 4750 2381 4750 
Q 2619 4750 2861 4703 
Q 3103 4656 3366 4563 
z
" transform="scale(0.015625)"/>
     </defs>
     <use xlink:href="#DejaVuSans-2d"/>
     <use xlink:href="#DejaVuSans-36" x="36.083984"/>
    </g>
   </g>
   <g id="text_3">
    <!-- -5 -->
    <g style="fill: #ffffff" transform="translate(31.914844 145.799375) scale(0.1 -0.1)">
     <defs>
      <path id="DejaVuSans-35" d="M 691 4666 
L 3169 4666 
L 3169 4134 
L 1269 4134 
L 1269 2991 
Q 1406 3038 1543 3061 
Q 1681 3084 1819 3084 
Q 2600 3084 3056 2656 
Q 3513 2228 3513 1497 
Q 3513 744 3044 326 
Q 2575 -91 1722 -91 
Q 1428 -91 1123 -41 
Q 819 9 494 109 
L 494 744 
Q 775 591 1075 516 
Q 1375 441 1709 441 
Q 2250 441 2565 725 
Q 2881 1009 2881 1497 
Q 2881 1984 2565 2268 
Q 2250 2553 1709 2553 
Q 1456 2553 1204 2497 
Q 953 2441 691 2322 
L 691 4666 
z
" transform="scale(0.015625)"/>
     </defs>
     <use xlink:href="#DejaVuSans-2d"/>
     <use xlink:href="#DejaVuSans-35" x="36.083984"/>
    </g>
   </g>
   <g id="text_4">
    <!-- -4 -->
    <g style="fill: #262626" transform="translate(31.914844 175.367375) scale(0.1 -0.1)">
     <defs>
      <path id="DejaVuSans-34" d="M 2419 4116 
L 825 1625 
L 2419 1625 
L 2419 4116 
z
M 2253 4666 
L 3047 4666 
L 3047 1625 
L 3713 1625 
L 3713 1100 
L 3047 1100 
L 3047 0 
L 2419 0 
L 2419 1100 
L 313 1100 
L 313 1709 
L 2253 4666 
z
" transform="scale(0.015625)"/>
     </defs>
     <use xlink:href="#DejaVuSans-2d"/>
     <use xlink:href="#DejaVuSans-34" x="36.083984"/>
    </g>
   </g>
   <g id="text_5">
    <!-- -3 -->
    <g style="fill: #262626" transform="translate(31.914844 204.935375) scale(0.1 -0.1)">
     <defs>
      <path id="DejaVuSans-33" d="M 2597 2516 
Q 3050 2419 3304 2112 
Q 3559 1806 3559 1356 
Q 3559 666 3084 287 
Q 2609 -91 1734 -91 
Q 1441 -91 1130 -33 
Q 819 25 488 141 
L 488 750 
Q 750 597 1062 519 
Q 1375 441 1716 441 
Q 2309 441 2620 675 
Q 2931 909 2931 1356 
Q 2931 1769 2642 2001 
Q 2353 2234 1838 2234 
L 1294 2234 
L 1294 2753 
L 1863 2753 
Q 2328 2753 2575 2939 
Q 2822 3125 2822 3475 
Q 2822 3834 2567 4026 
Q 2313 4219 1838 4219 
Q 1578 4219 1281 4162 
Q 984 4106 628 3988 
L 628 4550 
Q 988 4650 1302 4700 
Q 1616 4750 1894 4750 
Q 2613 4750 3031 4423 
Q 3450 4097 3450 3541 
Q 3450 3153 3228 2886 
Q 3006 2619 2597 2516 
z
" transform="scale(0.015625)"/>
     </defs>
     <use xlink:href="#DejaVuSans-2d"/>
     <use xlink:href="#DejaVuSans-33" x="36.083984"/>
    </g>
   </g>
   <g id="text_6">
    <!-- -2 -->
    <g style="fill: #262626" transform="translate(31.914844 234.503375) scale(0.1 -0.1)">
     <defs>
      <path id="DejaVuSans-32" d="M 1228 531 
L 3431 531 
L 3431 0 
L 469 0 
L 469 531 
Q 828 903 1448 1529 
Q 2069 2156 2228 2338 
Q 2531 2678 2651 2914 
Q 2772 3150 2772 3378 
Q 2772 3750 2511 3984 
Q 2250 4219 1831 4219 
Q 1534 4219 1204 4116 
Q 875 4013 500 3803 
L 500 4441 
Q 881 4594 1212 4672 
Q 1544 4750 1819 4750 
Q 2544 4750 2975 4387 
Q 3406 4025 3406 3419 
Q 3406 3131 3298 2873 
Q 3191 2616 2906 2266 
Q 2828 2175 2409 1742 
Q 1991 1309 1228 531 
z
" transform="scale(0.015625)"/>
     </defs>
     <use xlink:href="#DejaVuSans-2d"/>
     <use xlink:href="#DejaVuSans-32" x="36.083984"/>
    </g>
   </g>
   <g id="text_7">
    <!-- -1 -->
    <g style="fill: #262626" transform="translate(31.914844 264.071375) scale(0.1 -0.1)">
     <defs>
      <path id="DejaVuSans-31" d="M 794 531 
L 1825 531 
L 1825 4091 
L 703 3866 
L 703 4441 
L 1819 4666 
L 2450 4666 
L 2450 531 
L 3481 531 
L 3481 0 
L 794 0 
L 794 531 
z
" transform="scale(0.015625)"/>
     </defs>
     <use xlink:href="#DejaVuSans-2d"/>
     <use xlink:href="#DejaVuSans-31" x="36.083984"/>
    </g>
   </g>
   <g id="text_8">
    <!-- 0 -->
    <g style="fill: #262626" transform="translate(33.71875 293.639375) scale(0.1 -0.1)">
     <defs>
      <path id="DejaVuSans-30" d="M 2034 4250 
Q 1547 4250 1301 3770 
Q 1056 3291 1056 2328 
Q 1056 1369 1301 889 
Q 1547 409 2034 409 
Q 2525 409 2770 889 
Q 3016 1369 3016 2328 
Q 3016 3291 2770 3770 
Q 2525 4250 2034 4250 
z
M 2034 4750 
Q 2819 4750 3233 4129 
Q 3647 3509 3647 2328 
Q 3647 1150 3233 529 
Q 2819 -91 2034 -91 
Q 1250 -91 836 529 
Q 422 1150 422 2328 
Q 422 3509 836 4129 
Q 1250 4750 2034 4750 
z
" transform="scale(0.015625)"/>
     </defs>
     <use xlink:href="#DejaVuSans-30"/>
    </g>
   </g>
   <g id="text_9">
    <!-- 1 -->
    <g style="fill: #262626" transform="translate(33.71875 323.207375) scale(0.1 -0.1)">
     <use xlink:href="#DejaVuSans-31"/>
    </g>
   </g>
   <g id="text_10">
    <!-- 2 -->
    <g style="fill: #262626" transform="translate(33.71875 352.775375) scale(0.1 -0.1)">
     <use xlink:href="#DejaVuSans-32"/>
    </g>
   </g>
   <g id="text_11">
    <!-- 3 -->
    <g style="fill: #262626" transform="translate(33.71875 382.343375) scale(0.1 -0.1)">
     <use xlink:href="#DejaVuSans-33"/>
    </g>
   </g>
   <g id="text_12">
    <!-- 4 -->
    <g style="fill: #ffffff" transform="translate(33.71875 411.911375) scale(0.1 -0.1)">
     <use xlink:href="#DejaVuSans-34"/>
    </g>
   </g>
   <g id="text_13">
    <!-- 5 -->
    <g style="fill: #ffffff" transform="translate(33.71875 441.479375) scale(0.1 -0.1)">
     <use xlink:href="#DejaVuSans-35"/>
    </g>
   </g>
   <g id="text_14">
    <!-- 6 -->
    <g style="fill: #ffffff" transform="translate(33.71875 471.047375) scale(0.1 -0.1)">
     <use xlink:href="#DejaVuSans-36"/>
    </g>
   </g>
   <g id="text_15">
    <!-- 7 -->
    <g style="fill: #ffffff" transform="translate(33.71875 500.615375) scale(0.1 -0.1)">
     <use xlink:href="#DejaVuSans-37"/>
    </g>
   </g>
  </g>
 </g>
 <defs>
  <clipPath id="p6aa7283918">
   <rect x="22.116" y="69.12" width="29.568" height="443.52"/>
  </clipPath>
 </defs>
</svg>
