<?xml version="1.0" encoding="utf-8" standalone="no"?>
<!DOCTYPE svg PUBLIC "-//W3C//DTD SVG 1.1//EN"
  "http://www.w3.org/Graphics/SVG/1.1/DTD/svg11.dtd">
<svg xmlns:xlink="http://www.w3.org/1999/xlink" width="460.8pt" height="345.6pt" viewBox="0 0 460.8 345.6" xmlns="http://www.w3.org/2000/svg" version="1.1">
 <metadata>
  <rdf:RDF xmlns:dc="http://purl.org/dc/elements/1.1/" xmlns:cc="http://creativecommons.org/ns#" xmlns:rdf="http://www.w3.org/1999/02/22-rdf-syntax-ns#">
   <cc:Work>
    <dc:type rdf:resource="http://purl.org/dc/dcmitype/StillImage"/>
    <dc:date>2023-12-03T20:37:21.198473</dc:date>
    <dc:format>image/svg+xml</dc:format>
    <dc:creator>
     <cc:Agent>
      <dc:title>Matplotlib v3.8.2, https://matplotlib.org/</dc:title>
     </cc:Agent>
    </dc:creator>
   </cc:Work>
  </rdf:RDF>
 </metadata>
 <defs>
  <style type="text/css">*{stroke-linejoin: round; stroke-linecap: butt}</style>
 </defs>
 <g id="figure_1">
  <g id="patch_1">
   <path d="M 0 345.6 
L 460.8 345.6 
L 460.8 0 
L 0 0 
z
" style="fill: #ffffff"/>
  </g>
  <g id="axes_1">
   <g id="patch_2">
    <path d="M 83.730732 196.30361 
C 89.505691 196.30361 95.0449 194.009194 99.128413 189.925681 
C 103.211926 185.842169 105.506341 180.302959 105.506341 174.528 
C 105.506341 168.753041 103.211926 163.213831 99.128413 159.130319 
C 95.0449 155.046806 89.505691 152.75239 83.730732 152.75239 
C 77.955772 152.75239 72.416563 155.046806 68.33305 159.130319 
C 64.249538 163.213831 61.955122 168.753041 61.955122 174.528 
C 61.955122 180.302959 64.249538 185.842169 68.33305 189.925681 
C 72.416563 194.009194 77.955772 196.30361 83.730732 196.30361 
z
" clip-path="url(#pe5379ae8ee)" style="fill: #313695; stroke: #ffffff; stroke-linejoin: miter"/>
   </g>
   <g id="patch_3">
    <path d="M 127.281951 196.30361 
C 133.05691 196.30361 138.59612 194.009194 142.679633 189.925681 
C 146.763145 185.842169 149.057561 180.302959 149.057561 174.528 
C 149.057561 168.753041 146.763145 163.213831 142.679633 159.130319 
C 138.59612 155.046806 133.05691 152.75239 127.281951 152.75239 
C 121.506992 152.75239 115.967783 155.046806 111.88427 159.130319 
C 107.800757 163.213831 105.506341 168.753041 105.506341 174.528 
C 105.506341 180.302959 107.800757 185.842169 111.88427 189.925681 
C 115.967783 194.009194 121.506992 196.30361 127.281951 196.30361 
z
" clip-path="url(#pe5379ae8ee)" style="fill: #6399c7; stroke: #ffffff; stroke-linejoin: miter"/>
   </g>
   <g id="patch_4">
    <path d="M 170.833171 196.30361 
C 176.60813 196.30361 182.147339 194.009194 186.230852 189.925681 
C 190.314365 185.842169 192.60878 180.302959 192.60878 174.528 
C 192.60878 168.753041 190.314365 163.213831 186.230852 159.130319 
C 182.147339 155.046806 176.60813 152.75239 170.833171 152.75239 
C 165.058212 152.75239 159.519002 155.046806 155.435489 159.130319 
C 151.351977 163.213831 149.057561 168.753041 149.057561 174.528 
C 149.057561 180.302959 151.351977 185.842169 155.435489 189.925681 
C 159.519002 194.009194 165.058212 196.30361 170.833171 196.30361 
z
" clip-path="url(#pe5379ae8ee)" style="fill: #bde2ee; stroke: #ffffff; stroke-linejoin: miter"/>
   </g>
   <g id="patch_5">
    <path d="M 214.38439 196.30361 
C 220.159349 196.30361 225.698559 194.009194 229.782072 189.925681 
C 233.865584 185.842169 236.16 180.302959 236.16 174.528 
C 236.16 168.753041 233.865584 163.213831 229.782072 159.130319 
C 225.698559 155.046806 220.159349 152.75239 214.38439 152.75239 
C 208.609431 152.75239 203.070222 155.046806 198.986709 159.130319 
C 194.903196 163.213831 192.60878 168.753041 192.60878 174.528 
C 192.60878 180.302959 194.903196 185.842169 198.986709 189.925681 
C 203.070222 194.009194 208.609431 196.30361 214.38439 196.30361 
z
" clip-path="url(#pe5379ae8ee)" style="fill: #fffebe; stroke: #ffffff; stroke-linejoin: miter"/>
   </g>
   <g id="patch_6">
    <path d="M 257.93561 196.30361 
C 263.710569 196.30361 269.249778 194.009194 273.333291 189.925681 
C 277.416804 185.842169 279.71122 180.302959 279.71122 174.528 
C 279.71122 168.753041 277.416804 163.213831 273.333291 159.130319 
C 269.249778 155.046806 263.710569 152.75239 257.93561 152.75239 
C 252.160651 152.75239 246.621441 155.046806 242.537928 159.130319 
C 238.454416 163.213831 236.16 168.753041 236.16 174.528 
C 236.16 180.302959 238.454416 185.842169 242.537928 189.925681 
C 246.621441 194.009194 252.160651 196.30361 257.93561 196.30361 
z
" clip-path="url(#pe5379ae8ee)" style="fill: #fdbf71; stroke: #ffffff; stroke-linejoin: miter"/>
   </g>
   <g id="patch_7">
    <path d="M 301.486829 196.30361 
C 307.261788 196.30361 312.800998 194.009194 316.884511 189.925681 
C 320.968023 185.842169 323.262439 180.302959 323.262439 174.528 
C 323.262439 168.753041 320.968023 163.213831 316.884511 159.130319 
C 312.800998 155.046806 307.261788 152.75239 301.486829 152.75239 
C 295.71187 152.75239 290.172661 155.046806 286.089148 159.130319 
C 282.005635 163.213831 279.71122 168.753041 279.71122 174.528 
C 279.71122 180.302959 282.005635 185.842169 286.089148 189.925681 
C 290.172661 194.009194 295.71187 196.30361 301.486829 196.30361 
z
" clip-path="url(#pe5379ae8ee)" style="fill: #ea5739; stroke: #ffffff; stroke-linejoin: miter"/>
   </g>
   <g id="patch_8">
    <path d="M 345.038049 196.30361 
C 350.813008 196.30361 356.352217 194.009194 360.43573 189.925681 
C 364.519243 185.842169 366.813659 180.302959 366.813659 174.528 
C 366.813659 168.753041 364.519243 163.213831 360.43573 159.130319 
C 356.352217 155.046806 350.813008 152.75239 345.038049 152.75239 
C 339.26309 152.75239 333.72388 155.046806 329.640367 159.130319 
C 325.556855 163.213831 323.262439 168.753041 323.262439 174.528 
C 323.262439 180.302959 325.556855 185.842169 329.640367 189.925681 
C 333.72388 194.009194 339.26309 196.30361 345.038049 196.30361 
z
" clip-path="url(#pe5379ae8ee)" style="fill: #a50026; stroke: #ffffff; stroke-linejoin: miter"/>
   </g>
   <g id="text_1">
    <!-- -3 -->
    <g transform="translate(78.745575 177.287375) scale(0.1 -0.1)">
     <defs>
      <path id="DejaVuSans-2d" d="M 313 2009 
L 1997 2009 
L 1997 1497 
L 313 1497 
L 313 2009 
z
" transform="scale(0.015625)"/>
      <path id="DejaVuSans-33" d="M 2597 2516 
Q 3050 2419 3304 2112 
Q 3559 1806 3559 1356 
Q 3559 666 3084 287 
Q 2609 -91 1734 -91 
Q 1441 -91 1130 -33 
Q 819 25 488 141 
L 488 750 
Q 750 597 1062 519 
Q 1375 441 1716 441 
Q 2309 441 2620 675 
Q 2931 909 2931 1356 
Q 2931 1769 2642 2001 
Q 2353 2234 1838 2234 
L 1294 2234 
L 1294 2753 
L 1863 2753 
Q 2328 2753 2575 2939 
Q 2822 3125 2822 3475 
Q 2822 3834 2567 4026 
Q 2313 4219 1838 4219 
Q 1578 4219 1281 4162 
Q 984 4106 628 3988 
L 628 4550 
Q 988 4650 1302 4700 
Q 1616 4750 1894 4750 
Q 2613 4750 3031 4423 
Q 3450 4097 3450 3541 
Q 3450 3153 3228 2886 
Q 3006 2619 2597 2516 
z
" transform="scale(0.015625)"/>
     </defs>
     <use xlink:href="#DejaVuSans-2d"/>
     <use xlink:href="#DejaVuSans-33" x="36.083984"/>
    </g>
   </g>
   <g id="text_2">
    <!-- -2 -->
    <g transform="translate(122.296795 177.287375) scale(0.1 -0.1)">
     <defs>
      <path id="DejaVuSans-32" d="M 1228 531 
L 3431 531 
L 3431 0 
L 469 0 
L 469 531 
Q 828 903 1448 1529 
Q 2069 2156 2228 2338 
Q 2531 2678 2651 2914 
Q 2772 3150 2772 3378 
Q 2772 3750 2511 3984 
Q 2250 4219 1831 4219 
Q 1534 4219 1204 4116 
Q 875 4013 500 3803 
L 500 4441 
Q 881 4594 1212 4672 
Q 1544 4750 1819 4750 
Q 2544 4750 2975 4387 
Q 3406 4025 3406 3419 
Q 3406 3131 3298 2873 
Q 3191 2616 2906 2266 
Q 2828 2175 2409 1742 
Q 1991 1309 1228 531 
z
" transform="scale(0.015625)"/>
     </defs>
     <use xlink:href="#DejaVuSans-2d"/>
     <use xlink:href="#DejaVuSans-32" x="36.083984"/>
    </g>
   </g>
   <g id="text_3">
    <!-- -1 -->
    <g transform="translate(165.848014 177.287375) scale(0.1 -0.1)">
     <defs>
      <path id="DejaVuSans-31" d="M 794 531 
L 1825 531 
L 1825 4091 
L 703 3866 
L 703 4441 
L 1819 4666 
L 2450 4666 
L 2450 531 
L 3481 531 
L 3481 0 
L 794 0 
L 794 531 
z
" transform="scale(0.015625)"/>
     </defs>
     <use xlink:href="#DejaVuSans-2d"/>
     <use xlink:href="#DejaVuSans-31" x="36.083984"/>
    </g>
   </g>
   <g id="text_4">
    <!-- 0 -->
    <g transform="translate(211.20314 177.287375) scale(0.1 -0.1)">
     <defs>
      <path id="DejaVuSans-30" d="M 2034 4250 
Q 1547 4250 1301 3770 
Q 1056 3291 1056 2328 
Q 1056 1369 1301 889 
Q 1547 409 2034 409 
Q 2525 409 2770 889 
Q 3016 1369 3016 2328 
Q 3016 3291 2770 3770 
Q 2525 4250 2034 4250 
z
M 2034 4750 
Q 2819 4750 3233 4129 
Q 3647 3509 3647 2328 
Q 3647 1150 3233 529 
Q 2819 -91 2034 -91 
Q 1250 -91 836 529 
Q 422 1150 422 2328 
Q 422 3509 836 4129 
Q 1250 4750 2034 4750 
z
" transform="scale(0.015625)"/>
     </defs>
     <use xlink:href="#DejaVuSans-30"/>
    </g>
   </g>
   <g id="text_5">
    <!-- 1 -->
    <g transform="translate(254.75436 177.287375) scale(0.1 -0.1)">
     <use xlink:href="#DejaVuSans-31"/>
    </g>
   </g>
   <g id="text_6">
    <!-- 2 -->
    <g transform="translate(298.305579 177.287375) scale(0.1 -0.1)">
     <use xlink:href="#DejaVuSans-32"/>
    </g>
   </g>
   <g id="text_7">
    <!-- 3 -->
    <g transform="translate(341.856799 177.287375) scale(0.1 -0.1)">
     <use xlink:href="#DejaVuSans-33"/>
    </g>
   </g>
  </g>
 </g>
 <defs>
  <clipPath id="pe5379ae8ee">
   <rect x="57.6" y="148.397268" width="357.12" height="52.261463"/>
  </clipPath>
 </defs>
</svg>
