<?xml version="1.0" encoding="utf-8" standalone="no"?>
<!DOCTYPE svg PUBLIC "-//W3C//DTD SVG 1.1//EN"
  "http://www.w3.org/Graphics/SVG/1.1/DTD/svg11.dtd">
<svg xmlns:xlink="http://www.w3.org/1999/xlink" width="432pt" height="72pt" viewBox="0 0 432 72" xmlns="http://www.w3.org/2000/svg" version="1.1">
 <metadata>
  <rdf:RDF xmlns:dc="http://purl.org/dc/elements/1.1/" xmlns:cc="http://creativecommons.org/ns#" xmlns:rdf="http://www.w3.org/1999/02/22-rdf-syntax-ns#">
   <cc:Work>
    <dc:type rdf:resource="http://purl.org/dc/dcmitype/StillImage"/>
    <dc:date>2023-12-03T22:01:35.675205</dc:date>
    <dc:format>image/svg+xml</dc:format>
    <dc:creator>
     <cc:Agent>
      <dc:title>Matplotlib v3.8.2, https://matplotlib.org/</dc:title>
     </cc:Agent>
    </dc:creator>
   </cc:Work>
  </rdf:RDF>
 </metadata>
 <defs>
  <style type="text/css">*{stroke-linejoin: round; stroke-linecap: butt}</style>
 </defs>
 <g id="figure_1">
  <g id="patch_1">
   <path d="M 0 72 
L 432 72 
L 432 0 
L 0 0 
z
" style="fill: #ffffff"/>
  </g>
  <g id="axes_1">
   <g id="patch_2">
    <path d="M 54 51.578182 
L 388.8 51.578182 
L 388.8 21.141818 
L 54 21.141818 
z
" style="fill: #ffffff"/>
   </g>
   <g id="QuadMesh_1">
    <path d="M 54 21.141818 
L 84.436364 21.141818 
L 84.436364 51.578182 
L 54 51.578182 
L 54 21.141818 
" clip-path="url(#pf1f38a9f6c)" style="fill: #313695; stroke: #ffffff; stroke-width: 0.5"/>
    <path d="M 84.436364 21.141818 
L 114.872727 21.141818 
L 114.872727 51.578182 
L 84.436364 51.578182 
L 84.436364 21.141818 
" clip-path="url(#pf1f38a9f6c)" style="fill: #4574b3; stroke: #ffffff; stroke-width: 0.5"/>
    <path d="M 114.872727 21.141818 
L 145.309091 21.141818 
L 145.309091 51.578182 
L 114.872727 51.578182 
L 114.872727 21.141818 
" clip-path="url(#pf1f38a9f6c)" style="fill: #74add1; stroke: #ffffff; stroke-width: 0.5"/>
    <path d="M 145.309091 21.141818 
L 175.745455 21.141818 
L 175.745455 51.578182 
L 145.309091 51.578182 
L 145.309091 21.141818 
" clip-path="url(#pf1f38a9f6c)" style="fill: #aad8e9; stroke: #ffffff; stroke-width: 0.5"/>
    <path d="M 175.745455 21.141818 
L 206.181818 21.141818 
L 206.181818 51.578182 
L 175.745455 51.578182 
L 175.745455 21.141818 
" clip-path="url(#pf1f38a9f6c)" style="fill: #e0f3f8; stroke: #ffffff; stroke-width: 0.5"/>
    <path d="M 206.181818 21.141818 
L 236.618182 21.141818 
L 236.618182 51.578182 
L 206.181818 51.578182 
L 206.181818 21.141818 
" clip-path="url(#pf1f38a9f6c)" style="fill: #fffebe; stroke: #ffffff; stroke-width: 0.5"/>
    <path d="M 236.618182 21.141818 
L 267.054545 21.141818 
L 267.054545 51.578182 
L 236.618182 51.578182 
L 236.618182 21.141818 
" clip-path="url(#pf1f38a9f6c)" style="fill: #fee090; stroke: #ffffff; stroke-width: 0.5"/>
    <path d="M 267.054545 21.141818 
L 297.490909 21.141818 
L 297.490909 51.578182 
L 267.054545 51.578182 
L 267.054545 21.141818 
" clip-path="url(#pf1f38a9f6c)" style="fill: #fdad60; stroke: #ffffff; stroke-width: 0.5"/>
    <path d="M 297.490909 21.141818 
L 327.927273 21.141818 
L 327.927273 51.578182 
L 297.490909 51.578182 
L 297.490909 21.141818 
" clip-path="url(#pf1f38a9f6c)" style="fill: #f46d43; stroke: #ffffff; stroke-width: 0.5"/>
    <path d="M 327.927273 21.141818 
L 358.363636 21.141818 
L 358.363636 51.578182 
L 327.927273 51.578182 
L 327.927273 21.141818 
" clip-path="url(#pf1f38a9f6c)" style="fill: #d62f27; stroke: #ffffff; stroke-width: 0.5"/>
    <path d="M 358.363636 21.141818 
L 388.8 21.141818 
L 388.8 51.578182 
L 358.363636 51.578182 
L 358.363636 21.141818 
" clip-path="url(#pf1f38a9f6c)" style="fill: #a50026; stroke: #ffffff; stroke-width: 0.5"/>
   </g>
   <g id="matplotlib.axis_1"/>
   <g id="matplotlib.axis_2"/>
   <g id="text_1">
    <!-- -5 -->
    <g style="fill: #ffffff" transform="translate(64.233026 39.119375) scale(0.1 -0.1)">
     <defs>
      <path id="DejaVuSans-2d" d="M 313 2009 
L 1997 2009 
L 1997 1497 
L 313 1497 
L 313 2009 
z
" transform="scale(0.015625)"/>
      <path id="DejaVuSans-35" d="M 691 4666 
L 3169 4666 
L 3169 4134 
L 1269 4134 
L 1269 2991 
Q 1406 3038 1543 3061 
Q 1681 3084 1819 3084 
Q 2600 3084 3056 2656 
Q 3513 2228 3513 1497 
Q 3513 744 3044 326 
Q 2575 -91 1722 -91 
Q 1428 -91 1123 -41 
Q 819 9 494 109 
L 494 744 
Q 775 591 1075 516 
Q 1375 441 1709 441 
Q 2250 441 2565 725 
Q 2881 1009 2881 1497 
Q 2881 1984 2565 2268 
Q 2250 2553 1709 2553 
Q 1456 2553 1204 2497 
Q 953 2441 691 2322 
L 691 4666 
z
" transform="scale(0.015625)"/>
     </defs>
     <use xlink:href="#DejaVuSans-2d"/>
     <use xlink:href="#DejaVuSans-35" x="36.083984"/>
    </g>
   </g>
   <g id="text_2">
    <!-- -4 -->
    <g style="fill: #ffffff" transform="translate(94.669389 39.119375) scale(0.1 -0.1)">
     <defs>
      <path id="DejaVuSans-34" d="M 2419 4116 
L 825 1625 
L 2419 1625 
L 2419 4116 
z
M 2253 4666 
L 3047 4666 
L 3047 1625 
L 3713 1625 
L 3713 1100 
L 3047 1100 
L 3047 0 
L 2419 0 
L 2419 1100 
L 313 1100 
L 313 1709 
L 2253 4666 
z
" transform="scale(0.015625)"/>
     </defs>
     <use xlink:href="#DejaVuSans-2d"/>
     <use xlink:href="#DejaVuSans-34" x="36.083984"/>
    </g>
   </g>
   <g id="text_3">
    <!-- -3 -->
    <g style="fill: #ffffff" transform="translate(125.105753 39.119375) scale(0.1 -0.1)">
     <defs>
      <path id="DejaVuSans-33" d="M 2597 2516 
Q 3050 2419 3304 2112 
Q 3559 1806 3559 1356 
Q 3559 666 3084 287 
Q 2609 -91 1734 -91 
Q 1441 -91 1130 -33 
Q 819 25 488 141 
L 488 750 
Q 750 597 1062 519 
Q 1375 441 1716 441 
Q 2309 441 2620 675 
Q 2931 909 2931 1356 
Q 2931 1769 2642 2001 
Q 2353 2234 1838 2234 
L 1294 2234 
L 1294 2753 
L 1863 2753 
Q 2328 2753 2575 2939 
Q 2822 3125 2822 3475 
Q 2822 3834 2567 4026 
Q 2313 4219 1838 4219 
Q 1578 4219 1281 4162 
Q 984 4106 628 3988 
L 628 4550 
Q 988 4650 1302 4700 
Q 1616 4750 1894 4750 
Q 2613 4750 3031 4423 
Q 3450 4097 3450 3541 
Q 3450 3153 3228 2886 
Q 3006 2619 2597 2516 
z
" transform="scale(0.015625)"/>
     </defs>
     <use xlink:href="#DejaVuSans-2d"/>
     <use xlink:href="#DejaVuSans-33" x="36.083984"/>
    </g>
   </g>
   <g id="text_4">
    <!-- -2 -->
    <g style="fill: #262626" transform="translate(155.542116 39.119375) scale(0.1 -0.1)">
     <defs>
      <path id="DejaVuSans-32" d="M 1228 531 
L 3431 531 
L 3431 0 
L 469 0 
L 469 531 
Q 828 903 1448 1529 
Q 2069 2156 2228 2338 
Q 2531 2678 2651 2914 
Q 2772 3150 2772 3378 
Q 2772 3750 2511 3984 
Q 2250 4219 1831 4219 
Q 1534 4219 1204 4116 
Q 875 4013 500 3803 
L 500 4441 
Q 881 4594 1212 4672 
Q 1544 4750 1819 4750 
Q 2544 4750 2975 4387 
Q 3406 4025 3406 3419 
Q 3406 3131 3298 2873 
Q 3191 2616 2906 2266 
Q 2828 2175 2409 1742 
Q 1991 1309 1228 531 
z
" transform="scale(0.015625)"/>
     </defs>
     <use xlink:href="#DejaVuSans-2d"/>
     <use xlink:href="#DejaVuSans-32" x="36.083984"/>
    </g>
   </g>
   <g id="text_5">
    <!-- -1 -->
    <g style="fill: #262626" transform="translate(185.97848 39.119375) scale(0.1 -0.1)">
     <defs>
      <path id="DejaVuSans-31" d="M 794 531 
L 1825 531 
L 1825 4091 
L 703 3866 
L 703 4441 
L 1819 4666 
L 2450 4666 
L 2450 531 
L 3481 531 
L 3481 0 
L 794 0 
L 794 531 
z
" transform="scale(0.015625)"/>
     </defs>
     <use xlink:href="#DejaVuSans-2d"/>
     <use xlink:href="#DejaVuSans-31" x="36.083984"/>
    </g>
   </g>
   <g id="text_6">
    <!-- 0 -->
    <g style="fill: #262626" transform="translate(218.21875 39.119375) scale(0.1 -0.1)">
     <defs>
      <path id="DejaVuSans-30" d="M 2034 4250 
Q 1547 4250 1301 3770 
Q 1056 3291 1056 2328 
Q 1056 1369 1301 889 
Q 1547 409 2034 409 
Q 2525 409 2770 889 
Q 3016 1369 3016 2328 
Q 3016 3291 2770 3770 
Q 2525 4250 2034 4250 
z
M 2034 4750 
Q 2819 4750 3233 4129 
Q 3647 3509 3647 2328 
Q 3647 1150 3233 529 
Q 2819 -91 2034 -91 
Q 1250 -91 836 529 
Q 422 1150 422 2328 
Q 422 3509 836 4129 
Q 1250 4750 2034 4750 
z
" transform="scale(0.015625)"/>
     </defs>
     <use xlink:href="#DejaVuSans-30"/>
    </g>
   </g>
   <g id="text_7">
    <!-- 1 -->
    <g style="fill: #262626" transform="translate(248.655114 39.119375) scale(0.1 -0.1)">
     <use xlink:href="#DejaVuSans-31"/>
    </g>
   </g>
   <g id="text_8">
    <!-- 2 -->
    <g style="fill: #262626" transform="translate(279.091477 39.119375) scale(0.1 -0.1)">
     <use xlink:href="#DejaVuSans-32"/>
    </g>
   </g>
   <g id="text_9">
    <!-- 3 -->
    <g style="fill: #ffffff" transform="translate(309.527841 39.119375) scale(0.1 -0.1)">
     <use xlink:href="#DejaVuSans-33"/>
    </g>
   </g>
   <g id="text_10">
    <!-- 4 -->
    <g style="fill: #ffffff" transform="translate(339.964205 39.119375) scale(0.1 -0.1)">
     <use xlink:href="#DejaVuSans-34"/>
    </g>
   </g>
   <g id="text_11">
    <!-- 5 -->
    <g style="fill: #ffffff" transform="translate(370.400568 39.119375) scale(0.1 -0.1)">
     <use xlink:href="#DejaVuSans-35"/>
    </g>
   </g>
  </g>
 </g>
 <defs>
  <clipPath id="pf1f38a9f6c">
   <rect x="54" y="21.141818" width="334.8" height="30.436364"/>
  </clipPath>
 </defs>
</svg>
